<?xml version="1.0" encoding="UTF-8"?> <svg xmlns="http://www.w3.org/2000/svg" xmlns:xlink="http://www.w3.org/1999/xlink" version="1.1" x="0px" y="0px" width="436.667px" height="145.333px" viewBox="0 0 436.667 145.333" xml:space="preserve"> <g id="Capa_1"> <g> <path fill-rule="evenodd" clip-rule="evenodd" fill="#222D55" d="M203.894,71.008c0,25.124-18.032,42.856-42.955,42.856 c-24.931,0-42.955-17.732-42.955-42.856c0-23.486,20.603-39.974,42.955-39.974C183.287,31.034,203.894,47.522,203.894,71.008 L203.894,71.008z M138.986,71.114L138.986,71.114c0,13.39,9.896,23.172,21.953,23.172c12.045,0,21.94-9.782,21.94-23.172 c0-10.72-9.895-20.501-21.94-20.501C148.882,50.612,138.986,60.394,138.986,71.114z"></path> <path fill-rule="evenodd" clip-rule="evenodd" fill="#222D55" d="M413.203,71.008c0,25.124-18.025,42.856-42.968,42.856 c-24.925,0-42.953-17.732-42.953-42.856c0-23.486,20.603-39.974,42.953-39.974C392.602,31.034,413.203,47.522,413.203,71.008 L413.203,71.008z M348.305,71.114L348.305,71.114c0,13.39,9.875,23.172,21.93,23.172c12.051,0,21.955-9.782,21.955-23.172 c0-10.72-9.904-20.501-21.955-20.501C358.181,50.612,348.305,60.394,348.305,71.114z"></path> <g> <path fill-rule="evenodd" clip-rule="evenodd" fill="#EDC832" d="M47.991,49.159c4.716,0,8.544-3.845,8.544-8.542 c0-4.724-3.828-8.54-8.544-8.54c-4.715,0-8.533,3.816-8.533,8.54C39.458,45.314,43.276,49.159,47.991,49.159z"></path> </g> <path fill-rule="evenodd" clip-rule="evenodd" fill="#222D55" d="M59.691,117.149c2.912,0,5.273-2.447,5.273-5.426 c0-2.998-2.362-5.421-5.273-5.421c-2.921,0-5.29,2.423-5.29,5.421C54.401,114.702,56.769,117.149,59.691,117.149z"></path> <g> <path fill-rule="evenodd" clip-rule="evenodd" fill="#9E2189" d="M37.542,100.687c0.361,1.316,1.077,2.55,2.142,3.568 c3.313,3.269,8.757,3.085,11.842-0.53c2.592-3.042,2.548-7.621-0.114-10.618c-1.027-1.146-2.286-1.95-3.642-2.354 c-1.339-0.429-2.364-1.437-2.814-2.766c-0.459-1.338-1.266-2.598-2.44-3.588c-3.046-2.609-7.629-2.569-10.612,0.104 c-3.554,3.143-3.64,8.586-0.31,11.861c1.047,1.027,2.307,1.709,3.623,2.041C36.34,98.69,37.24,99.575,37.542,100.687z"></path> </g> <path fill-rule="evenodd" clip-rule="evenodd" fill="#222D55" d="M258.031,94.154c1.377,0,2.5,1.12,2.5,2.489v12.158 c0,1.369-1.122,2.504-2.5,2.504H199.81c-1.371,0-1.912-0.968-1.2-2.145l34.288-56.47c0.719-1.177,0.174-2.138-1.198-2.138h-23.824 c-1.376,0-2.497-1.116-2.497-2.497V35.902c0-1.374,1.122-2.504,2.497-2.504h57.71c1.371,0,1.916,0.962,1.206,2.143l-34.094,56.478 c-0.712,1.171-0.167,2.136,1.209,2.136H258.031z"></path> <path fill-rule="evenodd" clip-rule="evenodd" fill="#222D55" d="M325.385,94.154c1.384,0,2.506,1.12,2.506,2.489v12.158 c0,1.369-1.122,2.504-2.506,2.504h-59.976c-1.374,0-1.914-0.968-1.202-2.145l34.278-56.47c0.722-1.177,0.186-2.138-1.193-2.138 h-23.821c-1.373,0-2.5-1.116-2.5-2.497V35.902c0-1.374,1.126-2.504,2.5-2.504h57.705c1.374,0,1.927,0.962,1.215,2.143 l-34.099,56.478c-0.705,1.171-0.164,2.136,1.209,2.136H325.385z"></path> <path fill-rule="evenodd" clip-rule="evenodd" fill="#222D55" d="M107.186,48.406c-7.136-13.529-19.464-20.222-35.152-20.222 c-1.431,0-2.844,0.053-4.23,0.158c-1.364,0.082-2.469,1.16-2.573,2.533c-0.107,1.61,1.16,2.96,2.751,2.971 c0.397,0,0.775-0.068,1.12-0.237c0.078-0.04,0.167-0.074,0.251-0.124c2.474-0.657,2.911,1.392,2.911,2.224 c0,0.991-0.633,1.915-1.542,2.208c-0.528,0.209-1.139,0.178-1.644-0.12c-0.708-0.403-1.517-0.642-2.39-0.644 c-2.778-0.012-5.013,2.315-4.831,5.145c0.156,2.367,2.072,4.304,4.445,4.483c0.919,0.059,1.19-0.54,4.827-0.54 c7.728,0,13.46,4.314,16.574,10.958c0.507,0.972,1.718,1.5,2.757,1.071l15.627-6.564 C107.372,51.166,107.888,49.602,107.186,48.406z"></path> <path fill-rule="evenodd" clip-rule="evenodd" fill="#222D55" d="M70.088,97.062c-2.269-0.108-4.377,1.411-4.775,3.655 c-0.452,2.565,1.356,4.893,3.841,5.174c0.101,0.012,0.207,0.023,0.294,0.027l2.166,0.123l0.82,0.042 c2.296,0.256,1.76,2.358,1.664,4.318c-0.004,0.059-0.004,0.118-0.01,0.177c-0.192,1.9,1.561,3.108,3.467,2.992 c10.833-1.32,20.264-6.178,26.9-15.414c6.481-9.102,7.777-18.192,8.127-28.559c0.036-1.661-1.43-3.22-3.101-3.22H74.249 c-1.688,0-3.05,1.38-3.05,3.059v10.307c0,1.669,1.363,3.026,3.04,3.047c0.01,0-0.015,0,0,0l11.017-0.015 c1.694,0,2.963,1.675,2.398,3.279C85.764,92.665,78.49,97.239,70.088,97.062z"></path> <path fill-rule="evenodd" clip-rule="evenodd" fill="#82C0A1" d="M33.209,60.402l1.838,1.838l5.135-5.136 c0.883-0.846,7.993-5.63,17.519-1.256L43.078,70.271l0.024,0.024l-8.03,8.03l-0.024-0.024l-0.024,0.024l-8.03-8.03l0.024-0.024 l-1.891-1.891c-2.217-2.217-2.217-5.813,0-8.03s5.814-2.218,8.031-0.001L33.209,60.402z"></path> </g> </g> <g id="Capa_1_1_"> </g> </svg> 