<svg xmlns="http://www.w3.org/2000/svg" width="182" height="24" viewBox="0 0 182 24" fill="none"><g clip-path="url(#clip0_350_969)"><path d="M12.1921 7.71906C11.0715 7.10984 9.79037 6.80029 8.38145 6.80029C6.97253 6.80029 5.78969 7.10326 4.70187 7.7026C4.33162 7.90677 3.9843 8.13729 3.66647 8.39085C3.60094 8.02532 3.44039 7.71577 3.1881 7.4622C2.84733 7.11972 2.39844 6.94519 1.85126 6.94519C1.30407 6.94519 0.884672 7.11643 0.53408 7.45891C0.180211 7.80139 0 8.25584 0 8.80578V22.0506C0 22.5808 0.176934 23.0253 0.527527 23.3777C0.878119 23.73 1.32373 23.9079 1.84798 23.9079C2.37223 23.9079 2.84733 23.7267 3.1881 23.3711C3.52558 23.0187 3.69924 22.5742 3.69924 22.0473V13.673C3.69924 13.0045 3.8729 12.4348 4.22677 11.9243C4.58391 11.4106 5.07867 10.9924 5.69467 10.6828C6.31394 10.3733 7.01512 10.2152 7.78511 10.2152C8.63374 10.2152 9.39391 10.3766 10.0427 10.6993C10.6783 11.0154 11.1895 11.5028 11.5663 12.1516C11.9463 12.8069 12.1397 13.6795 12.1397 14.7399V22.044C12.1397 22.5742 12.3166 23.0187 12.6672 23.3711C13.0178 23.7235 13.4634 23.9013 13.9876 23.9013C14.5119 23.9013 14.9575 23.7235 15.3081 23.3711C15.6587 23.0187 15.8356 22.5709 15.8356 22.044V14.7399C15.8356 13.044 15.508 11.5917 14.8625 10.4161C14.2137 9.23388 13.3127 8.32499 12.1855 7.71248" fill="#0DB14B"></path><path d="M29.9406 7.92948C28.6726 7.19842 27.2014 6.82959 25.5762 6.82959C23.951 6.82959 22.4504 7.19842 21.1823 7.92948C19.911 8.66055 18.8986 9.68469 18.1745 10.969C17.4503 12.2533 17.0801 13.7549 17.0801 15.4311C17.0801 17.1073 17.4471 18.5793 18.1745 19.8636C18.9018 21.1512 19.9143 22.1721 21.1823 22.9031C22.4504 23.6342 23.9281 24.003 25.5795 24.003C27.2309 24.003 28.7086 23.6342 29.9766 22.9031C31.2447 22.1721 32.2538 21.1512 32.9714 19.8636C33.6857 18.5793 34.0494 17.0908 34.0494 15.4344C34.0494 13.778 33.6824 12.2566 32.955 10.9723C32.2276 9.68799 31.2152 8.66384 29.9471 7.93277M28.1221 19.9789C27.3914 20.4202 26.5362 20.6441 25.5795 20.6441C24.6227 20.6441 23.7675 20.4202 23.0369 19.9789C22.3062 19.5376 21.7197 18.9218 21.3003 18.1479C20.8776 17.3708 20.6646 16.4586 20.6646 15.4311C20.6646 14.4037 20.8809 13.4849 21.3036 12.7012C21.723 11.9174 22.3095 11.2983 23.0401 10.857C23.7708 10.4158 24.626 10.1951 25.5828 10.1951C26.5395 10.1951 27.3947 10.4191 28.1254 10.857C28.856 11.2983 29.4327 11.9174 29.8456 12.6979C30.2617 13.4849 30.4714 14.4037 30.4714 15.4311C30.4714 16.4586 30.2617 17.3708 29.8488 18.1479C29.436 18.9185 28.8593 19.5343 28.1286 19.9756" fill="#0DB14B"></path><path d="M48.3876 7.96585C47.1949 7.21173 45.8318 6.82973 44.3345 6.82973C43.1254 6.82973 41.995 7.08659 40.976 7.59373C40.2322 7.96255 39.5605 8.43676 38.974 9.00317V1.85717C38.974 1.31052 38.8003 0.85937 38.4596 0.513596C38.1188 0.171116 37.6699 -0.00341797 37.1227 -0.00341797C36.5756 -0.00341797 36.1562 0.167822 35.8056 0.510303C35.4517 0.852784 35.2715 1.30723 35.2715 1.85717V15.4049C35.2911 17.0218 35.6745 18.4938 36.4085 19.788C37.1457 21.0822 38.1614 22.1195 39.4294 22.8703C40.6975 23.6212 42.149 24.0032 43.7414 24.0032C45.3338 24.0032 46.8115 23.6212 48.0828 22.8703C49.3509 22.1228 50.3699 21.0855 51.1169 19.7913C51.864 18.4971 52.2408 17.0185 52.2408 15.4016C52.2408 13.7847 51.8935 12.3193 51.2087 11.0383C50.5239 9.75399 49.5737 8.71996 48.3843 7.96914M43.7414 20.6409C42.824 20.6409 41.9852 20.4137 41.2447 19.9626C40.5042 19.5114 39.9144 18.8824 39.4917 18.0921C39.069 17.2952 38.8528 16.3929 38.8528 15.4049C38.8528 14.417 39.0657 13.4949 39.4917 12.7211C39.9111 11.9472 40.5009 11.3281 41.2447 10.8736C41.9852 10.4225 42.824 10.1953 43.7414 10.1953C44.6588 10.1953 45.5206 10.4225 46.2512 10.8703C46.9852 11.3215 47.575 11.9439 48.0075 12.7211C48.44 13.4982 48.6595 14.4005 48.6595 15.4049C48.6595 16.4093 48.44 17.2952 48.0075 18.0921C47.575 18.8857 46.9852 19.518 46.2545 19.9691C45.5238 20.417 44.6818 20.6475 43.7447 20.6475" fill="#0DB14B"></path><path d="M55.3239 6.94824C54.7997 6.94824 54.3573 7.11948 54.0067 7.46196C53.6529 7.80444 53.4727 8.25889 53.4727 8.80883V22.024C53.4727 22.5542 53.6496 22.9987 54.0002 23.3511C54.3508 23.7035 54.7964 23.8813 55.3206 23.8813C55.8449 23.8813 56.32 23.7002 56.6608 23.3445C56.9982 22.9921 57.1719 22.5476 57.1719 22.0207V8.80883C57.1719 8.26218 56.9982 7.81103 56.6575 7.46526C56.3167 7.12278 55.8678 6.94824 55.3206 6.94824" fill="#0DB14B"></path><path d="M69.7809 14.7989C68.8995 14.3312 67.6872 13.9394 66.1865 13.6364C65.1478 13.4223 64.3516 13.205 63.8241 12.9877C63.2212 12.7407 62.9755 12.5003 62.8739 12.3455C62.7232 12.115 62.6478 11.8614 62.6478 11.5683C62.6478 11.1271 62.8739 10.8109 63.3588 10.5705C63.9093 10.2972 64.5974 10.1622 65.41 10.1622C66.121 10.1622 66.7501 10.2478 67.2874 10.4125C67.8051 10.5738 68.2966 10.8768 68.7521 11.3148C69.0961 11.6375 69.5221 11.845 70.0168 11.9372C70.5411 12.0327 71.0031 11.9438 71.4061 11.6671C71.8058 11.3675 72.0188 10.9855 72.045 10.5343C72.0679 10.0963 71.9107 9.67811 71.5863 9.3027C70.9605 8.52882 70.1118 7.91301 69.0568 7.47833C68.0148 7.04693 66.8058 6.82959 65.4689 6.82959C64.4303 6.82959 63.4178 7.00083 62.4611 7.34002C61.4846 7.68579 60.6721 8.21598 60.043 8.9207C59.3975 9.64518 59.0698 10.5672 59.0698 11.6605C59.0698 12.9086 59.5613 13.9723 60.5312 14.8285C61.4683 15.6583 62.9788 16.284 65.0266 16.6891C66.5011 16.9558 67.5234 17.295 68.0574 17.6935C68.5456 18.0623 68.7783 18.4706 68.7619 18.9514C68.7455 19.4289 68.4932 19.8109 67.9919 20.1238C67.448 20.463 66.6289 20.6375 65.5574 20.6375C64.7022 20.6375 63.9191 20.4827 63.2278 20.1765C62.5364 19.8702 62.0351 19.5442 61.7304 19.2017C61.3995 18.8461 60.9964 18.6353 60.5344 18.576C60.0561 18.5167 59.5777 18.6748 59.1157 19.0436C58.7061 19.3598 58.4669 19.7714 58.408 20.272C58.3457 20.7824 58.4997 21.2401 58.8765 21.6419C59.5613 22.3301 60.5213 22.8998 61.7369 23.3411C62.9394 23.7791 64.2664 23.9997 65.6786 23.9997C67.0908 23.9997 68.3458 23.7692 69.3255 23.3148C70.315 22.8537 71.0784 22.2248 71.5961 21.441C72.1138 20.654 72.3759 19.7615 72.3759 18.7868C72.3759 17.9339 72.1695 17.1699 71.7632 16.5113C71.3569 15.8592 70.6918 15.2829 69.7842 14.7989" fill="#0DB14B"></path><path d="M55.3252 0C54.5552 0 53.8802 0.283205 53.3232 0.84303C52.7662 1.40285 52.4844 2.07794 52.4844 2.8551C52.4844 3.63227 52.7662 4.30735 53.3232 4.86718C53.8802 5.427 54.5519 5.71021 55.3252 5.71021C56.0984 5.71021 56.7701 5.427 57.3271 4.86718C57.8842 4.30735 58.1659 3.63227 58.1659 2.8551C58.1659 2.07794 57.8842 1.40285 57.3271 0.84303C56.7701 0.286498 56.0984 0 55.3252 0Z" fill="#8DC63F"></path><path d="M100.847 9.84285C100.342 8.84176 99.6409 8.08435 98.7366 7.56733C97.8322 7.05361 96.7968 6.79346 95.6271 6.79346C94.2935 6.79346 93.1074 7.08325 92.072 7.65954C91.3414 8.06788 90.7286 8.5849 90.2273 9.21387C89.7653 8.51903 89.1886 7.96909 88.4842 7.56733C87.5799 7.05361 86.5445 6.79346 85.3747 6.79346C84.205 6.79346 83.0844 7.08325 82.1408 7.65954C81.7443 7.90323 81.3839 8.18643 81.0595 8.50915C81.0497 8.058 80.9088 7.68918 80.6335 7.41256C80.3452 7.12277 79.9651 6.97787 79.4933 6.97787C79.0215 6.97787 78.6676 7.12277 78.3694 7.41256C78.0713 7.70235 77.9238 8.08435 77.9238 8.55855V22.3302C77.9238 22.7847 78.0713 23.1601 78.3694 23.4598C78.6676 23.7594 79.0411 23.9076 79.4933 23.9076C79.9455 23.9076 80.3452 23.7594 80.6335 23.4598C80.9219 23.1601 81.0661 22.7847 81.0661 22.3302V13.6036C81.0661 12.4477 81.4134 11.4993 82.1113 10.755C82.8092 10.0141 83.6906 9.64198 84.7587 9.64198C85.8269 9.64198 86.6166 9.95811 87.2522 10.5871C87.8879 11.2161 88.2057 12.1809 88.2057 13.4817V22.3335C88.2057 22.788 88.3531 23.1634 88.6513 23.4631C88.9495 23.7627 89.323 23.9109 89.7752 23.9109C90.2273 23.9109 90.6271 23.7627 90.9154 23.4631C91.2037 23.1634 91.3479 22.788 91.3479 22.3335V13.6068C91.3479 12.451 91.6919 11.5026 92.38 10.7583C93.0681 10.0174 93.9462 9.64527 95.0111 9.64527C96.076 9.64527 96.8689 9.9614 97.5046 10.5904C98.1402 11.2194 98.458 12.1842 98.458 13.485V22.3368C98.458 22.7913 98.6055 23.1667 98.9037 23.4663C99.2018 23.766 99.5754 23.9142 100.028 23.9142C100.48 23.9142 100.879 23.766 101.168 23.4663C101.456 23.1667 101.6 22.7913 101.6 22.3368V13.485C101.6 12.0624 101.348 10.8505 100.847 9.84944V9.84285Z" fill="#8DC63F"></path><path d="M118.413 16.1263C118.678 15.8695 118.812 15.5435 118.812 15.1516C118.812 13.5215 118.508 12.0824 117.905 10.8343C117.299 9.58627 116.421 8.60493 115.274 7.89362C114.124 7.18231 112.748 6.82666 111.149 6.82666C109.55 6.82666 108.088 7.19219 106.837 7.92655C105.585 8.65762 104.605 9.66859 103.898 10.9595C103.19 12.2504 102.836 13.7388 102.836 15.4315C102.836 17.1241 103.209 18.583 103.96 19.8739C104.71 21.1648 105.746 22.1757 107.069 22.9068C108.393 23.6379 109.907 24.0067 111.611 24.0067C112.554 24.0067 113.544 23.8321 114.582 23.4798C115.618 23.1307 116.486 22.6763 117.184 22.1197C117.531 21.853 117.695 21.5303 117.675 21.1615C117.656 20.7893 117.469 20.4502 117.122 20.1406C116.856 19.9134 116.542 19.8047 116.181 19.8146C115.821 19.8245 115.49 19.943 115.182 20.1702C114.772 20.4798 114.232 20.7531 113.567 20.9902C112.898 21.2273 112.246 21.3459 111.611 21.3459C110.441 21.3459 109.405 21.089 108.501 20.572C107.597 20.055 106.889 19.3536 106.378 18.4677C106.034 17.875 105.808 17.2229 105.696 16.5182H117.404C117.813 16.5182 118.154 16.3898 118.419 16.1329L118.413 16.1263ZM108.144 10.2613C108.976 9.74433 109.976 9.48747 111.145 9.48747C112.171 9.48747 113.042 9.72457 113.763 10.1988C114.481 10.673 115.035 11.3184 115.424 12.1318C115.7 12.7114 115.88 13.347 115.972 14.0352H105.726C105.831 13.4458 106.004 12.8925 106.25 12.3788C106.683 11.4831 107.312 10.7751 108.144 10.2581V10.2613Z" fill="#8DC63F"></path><path d="M128.543 23.9999C126.941 23.9999 125.499 23.6245 124.218 22.8703C122.934 22.1162 121.918 21.0921 121.171 19.7913C120.42 18.4905 120.047 17.0284 120.047 15.3983C120.047 13.7683 120.391 12.3094 121.079 11.0185C121.767 9.73094 122.704 8.71008 123.897 7.95597C125.086 7.20185 126.433 6.82644 127.93 6.82644C129.143 6.82644 130.26 7.08001 131.285 7.58385C132.311 8.09098 133.173 8.77595 133.871 9.64203V1.57726C133.871 1.10306 134.018 0.721061 134.316 0.431269C134.614 0.141478 134.988 -0.00341797 135.44 -0.00341797C135.892 -0.00341797 136.292 0.141478 136.58 0.431269C136.869 0.721061 137.013 1.10306 137.013 1.57726V15.3983C137.013 17.0284 136.639 18.4938 135.889 19.7913C135.139 21.0921 134.13 22.1162 132.855 22.8703C131.584 23.6245 130.145 23.9999 128.543 23.9999ZM128.543 21.2139C129.592 21.2139 130.522 20.9604 131.344 20.4565C132.164 19.9527 132.812 19.2545 133.284 18.3687C133.756 17.4829 133.992 16.4916 133.992 15.3983C133.992 14.305 133.756 13.2941 133.284 12.428C132.812 11.5619 132.164 10.8769 131.344 10.3698C130.522 9.86266 129.588 9.61239 128.543 9.61239C127.498 9.61239 126.587 9.86596 125.758 10.3698C124.926 10.8769 124.27 11.5619 123.789 12.428C123.307 13.2941 123.065 14.2853 123.065 15.3983C123.065 16.5114 123.307 17.4829 123.789 18.3687C124.27 19.2545 124.929 19.9527 125.758 20.4565C126.59 20.9637 127.517 21.2139 128.543 21.2139Z" fill="#8DC63F"></path><path d="M139.816 23.878C139.363 23.878 138.99 23.7298 138.692 23.4301C138.394 23.1305 138.246 22.755 138.246 22.3006V8.52892C138.246 8.05472 138.394 7.67272 138.692 7.38293C138.99 7.09314 139.363 6.94824 139.816 6.94824C140.268 6.94824 140.667 7.09314 140.956 7.38293C141.244 7.67272 141.388 8.05472 141.388 8.52892V22.3006C141.388 22.755 141.244 23.1305 140.956 23.4301C140.667 23.7298 140.287 23.878 139.816 23.878Z" fill="#8DC63F"></path><path d="M151.117 24C149.475 24 148.01 23.6246 146.729 22.8704C145.445 22.1163 144.439 21.0955 143.712 19.8079C142.984 18.5203 142.617 17.0581 142.617 15.4281C142.617 13.798 142.978 12.2733 143.695 10.9725C144.413 9.67176 145.399 8.65749 146.651 7.92313C147.902 7.19207 149.341 6.82324 150.963 6.82324C152.175 6.82324 153.282 7.05705 154.288 7.51808C155.294 7.98241 156.199 8.67725 156.998 9.6059C157.286 9.93521 157.388 10.2777 157.306 10.6268C157.224 10.9791 156.998 11.2854 156.628 11.5554C156.339 11.7629 156.022 11.8287 155.674 11.7563C155.324 11.6838 155.006 11.5027 154.721 11.2162C153.715 10.1427 152.463 9.6059 150.966 9.6059C149.921 9.6059 148.997 9.84959 148.194 10.3337C147.394 10.8178 146.769 11.4928 146.316 12.3622C145.864 13.2283 145.638 14.2491 145.638 15.4248C145.638 16.5378 145.868 17.5291 146.33 18.3951C146.792 19.2612 147.434 19.9462 148.253 20.4533C149.072 20.9605 150.029 21.2107 151.117 21.2107C151.834 21.2107 152.467 21.1218 153.01 20.9473C153.554 20.7727 154.052 20.4994 154.505 20.1273C154.832 19.8606 155.173 19.7091 155.52 19.6794C155.868 19.6498 156.176 19.7453 156.444 19.9725C156.792 20.2623 156.988 20.585 157.031 20.9473C157.07 21.3095 156.949 21.6322 156.661 21.922C155.183 23.3051 153.335 23.9967 151.12 23.9967L151.117 24Z" fill="#8DC63F"></path><path d="M172.87 11.0352C172.119 9.73445 171.11 8.7103 169.835 7.95619C168.564 7.20207 167.126 6.82666 165.523 6.82666C163.921 6.82666 162.48 7.20207 161.198 7.95619C159.914 8.7103 158.898 9.73445 158.151 11.0352C157.401 12.336 157.027 13.8014 157.027 15.4282C157.027 17.055 157.371 18.5171 158.059 19.808C158.748 21.0989 159.685 22.1197 160.877 22.8706C162.067 23.6247 163.413 24.0001 164.911 24.0001C166.408 24.0001 167.755 23.6247 168.944 22.8706C169.675 22.4095 170.311 21.8431 170.854 21.1779V22.3305C170.854 22.7849 171.002 23.1604 171.3 23.46C171.598 23.7597 171.972 23.9079 172.424 23.9079C172.876 23.9079 173.25 23.7597 173.548 23.46C173.846 23.1604 173.993 22.7849 173.993 22.3305V15.4282C173.993 13.7981 173.62 12.3327 172.87 11.0352ZM168.328 20.4567C167.506 20.9639 166.572 21.2141 165.527 21.2141C164.482 21.2141 163.571 20.9606 162.742 20.4567C161.909 19.9529 161.254 19.2613 160.772 18.3821C160.291 17.5061 160.048 16.5215 160.048 15.4282C160.048 14.3349 160.291 13.3206 160.772 12.4414C161.254 11.5654 161.913 10.8739 162.742 10.3667C163.574 9.85959 164.501 9.60932 165.527 9.60932C166.552 9.60932 167.506 9.86288 168.328 10.3667C169.147 10.8739 169.796 11.5621 170.268 12.4414C170.74 13.3173 170.976 14.3118 170.976 15.4282C170.976 16.5446 170.74 17.5061 170.268 18.3821C169.796 19.2581 169.147 19.9496 168.328 20.4567Z" fill="#8DC63F"></path><path d="M179.845 23.8782C178.94 23.8782 178.141 23.6312 177.443 23.1372C176.745 22.6432 176.201 21.9682 175.811 21.1087C175.421 20.2525 175.225 19.2678 175.225 18.1548V1.54775C175.225 1.0933 175.369 0.724479 175.657 0.434687C175.945 0.144896 176.312 0 176.765 0C177.217 0 177.584 0.144896 177.872 0.434687C178.16 0.724479 178.305 1.0966 178.305 1.54775V18.1515C178.305 18.9155 178.449 19.5445 178.737 20.0384C179.025 20.5324 179.392 20.7794 179.845 20.7794H180.615C181.024 20.7794 181.358 20.9243 181.614 21.2141C181.869 21.5038 181.997 21.8727 181.997 22.3271C181.997 22.7816 181.801 23.1537 181.411 23.4402C181.021 23.73 180.516 23.8749 179.904 23.8749H179.841L179.845 23.8782Z" fill="#8DC63F"></path><path d="M139.815 4.8969C139.261 4.8969 138.783 4.69602 138.383 4.29427C137.983 3.89251 137.783 3.41172 137.783 2.85519C137.783 2.29866 137.983 1.81787 138.383 1.41611C138.783 1.01435 139.261 0.813477 139.815 0.813477C140.368 0.813477 140.847 1.01435 141.247 1.41611C141.646 1.81787 141.846 2.29866 141.846 2.85519C141.846 3.41172 141.646 3.89251 141.247 4.29427C140.847 4.69602 140.368 4.8969 139.815 4.8969Z" fill="#8DC63F"></path></g><defs><clipPath id="clip0_350_969"><rect width="182" height="24" fill="white"></rect></clipPath></defs></svg>