<?xml version="1.0" encoding="UTF-8"?>
<!DOCTYPE svg PUBLIC "-//W3C//DTD SVG 1.1//EN" "http://www.w3.org/Graphics/SVG/1.1/DTD/svg11.dtd">
<!-- Creator: CorelDRAW 2020 (64-Bit) -->
<svg xmlns="http://www.w3.org/2000/svg" xml:space="preserve" width="206mm" height="80mm" version="1.1" style="shape-rendering:geometricPrecision; text-rendering:geometricPrecision; image-rendering:optimizeQuality; fill-rule:evenodd; clip-rule:evenodd"
viewBox="0 0 20600 8000"
 xmlns:xlink="http://www.w3.org/1999/xlink"
 xmlns:xodm="http://www.corel.com/coreldraw/odm/2003">
 <defs>
  <style type="text/css">
   <![CDATA[
    .fil2 {fill:#FEFEFE}
    .fil5 {fill:#00AFEF}
    .fil3 {fill:#1660AB}
    .fil1 {fill:#FEFEFE;fill-rule:nonzero}
    .fil4 {fill:#1660AB;fill-rule:nonzero}
    .fil0 {fill:#1660AB;fill-rule:nonzero}
   ]]>
  </style>
    <mask id="id0">
  <linearGradient id="id1" gradientUnits="userSpaceOnUse" x1="3809.28" y1="4790.71" x2="4547.14" y2="3473.16">
   <stop offset="0" style="stop-opacity:0; stop-color:white"/>
   <stop offset="1" style="stop-opacity:1; stop-color:white"/>
  </linearGradient>
     <rect style="fill:url(#id1)" x="1426.57" y="3024.82" width="3300.88" height="2365.8"/>
    </mask>
 </defs>
 <g id="Capa_x0020_1">
  <metadata id="CorelCorpID_0Corel-Layer"/>
  <g id="_2008772011024">
   <path class="fil0" d="M3907.91 30.6l16179.37 0c130.7,0 249.48,53.42 335.53,139.47 86.05,86.05 139.47,204.83 139.47,335.53l0 3998.26c0,955.71 -390.93,1824.49 -1020.72,2454.28 -629.79,629.79 -1498.57,1020.72 -2454.28,1020.72l-13179.37 0c-130.7,0 -249.48,-53.42 -335.53,-139.47 -86.05,-86.05 -139.47,-204.83 -139.47,-335.53l0 -129.6c-1788.37,-84.01 -3212.51,-1560.38 -3212.51,-3369.53 0,-1809.15 1424.14,-3285.52 3212.51,-3369.53l0 -129.6c0,-130.7 53.42,-249.48 139.47,-335.53 86.05,-86.05 204.83,-139.47 335.53,-139.47z"/>
   <path class="fil1" d="M15868.5 4728.82c-43.18,30.79 -94.91,57.2 -153.72,78.67l-1.95 -0.29c0,0.29 -0.07,0.62 -0.14,0.94 -167.77,60.84 -394.29,81.15 -656,44.54 -107.8,-15.3 -132.87,81.99 -133.11,94.74 289.79,63.32 545.55,72.18 749.81,28 -31.01,82.61 -77.2,145.11 -139.45,189.14 -141.5,100.16 -390.86,144.7 -760.6,72.69 -65.92,-9.85 -119.08,28.87 -129.87,82.66 47.05,12.28 92.36,23.19 134.62,32.08 131.2,28.47 292.87,56.69 450.9,52.82 -18,42.73 -43.15,75.53 -76.07,98.75 -84.93,60.16 -249.39,107.17 -706.27,4.09 -91.97,-20.71 -137.67,70.27 -138.86,79.22 128.98,34.27 252.87,63.8 368.17,88.21l0.1 -0.22c23.06,5.08 47.66,10.01 73.23,14.52 2.6,87.32 -31.29,175.46 -314.04,95.78 -386.88,-109.8 -579.31,16.43 -671.96,71.43 -95.94,56.78 -186.38,110.47 -345.28,111.86l-3.26 0c-158.8,-1.39 -249.32,-55.08 -345.17,-111.86 -92.75,-55 -285.09,-181.23 -672.04,-71.43 -282.73,79.68 -316.67,-8.46 -313.97,-95.78 25.6,-4.51 50.09,-9.44 73.23,-14.52l0.02 0.22c115.33,-24.41 239.12,-53.94 368.13,-88.21 -1.13,-8.95 -46.76,-99.93 -138.87,-79.22 -456.84,103.08 -621.18,56.07 -706.18,-4.09 -32.86,-23.22 -58.13,-56.02 -76.13,-98.75 158.08,3.87 319.58,-24.35 450.97,-52.82 42.27,-8.89 87.52,-19.8 134.54,-32.08 -10.9,-53.79 -63.84,-92.51 -129.86,-82.66 -369.72,72.01 -619.08,27.47 -760.5,-72.69 -62.25,-44.03 -108.38,-106.53 -139.48,-189.14 204.25,44.18 459.95,35.32 749.81,-28 -0.24,-12.75 -25.32,-110.04 -133.23,-94.74 -261.61,36.61 -488.08,16.3 -655.88,-44.54 -0.09,-0.32 -0.09,-0.65 -0.15,-0.94l-2.03 0.29c-58.77,-21.47 -110.43,-47.88 -153.62,-78.67 -83.16,-59.16 -137.4,-139.26 -165.12,-242.87 494.16,90.64 897.18,36.32 1015.34,16.07 4.74,-0.67 162.06,-25.09 162.06,-25.09 246.35,-39.96 525.28,-85.31 685.28,6.31 0.57,0.36 0.86,0.56 1.32,0.82 15.8,9.3 27.3,16.93 49.14,34.55 0.68,0.57 1.42,1.03 2.15,1.74 16.01,12.01 36.17,17.68 56.23,15.23 20.91,-2.48 39.59,-13.71 52.98,-30.01 1.52,-1.94 3.2,-4 4.77,-5.96 14.45,-17.62 27.51,-33.37 34.33,-41.55 1.96,-2.24 5.25,-6.09 5.25,-6.09 116.84,-141.63 300.13,-213.49 544.86,-213.49l6.95 0c244.67,0 428.01,71.86 544.83,213.49 0,0 3.34,3.85 5.31,6.09 6.79,8.18 19.9,23.93 34.2,41.55 1.74,1.96 3.28,4.02 4.99,5.96 13.2,16.3 31.85,27.53 52.79,30.01 20.11,2.45 40.24,-3.22 56.32,-15.23 0.71,-0.71 1.45,-1.17 2.1,-1.74 21.83,-17.62 33.3,-25.25 49.14,-34.55 0.49,-0.26 0.85,-0.46 1.25,-0.82 160,-91.62 439.07,-46.27 685.32,-6.31 0,0 157.35,24.42 162.07,25.09 118.17,20.25 521.3,74.57 1015.39,-16.07 -27.73,103.61 -82,183.71 -165.09,242.87zm329.75 -420.29c-16.23,-14.62 -35.65,-9.08 -35.65,-9.08l-50.14 11.18c-517.13,116 -948.07,57.87 -1067.91,37.2l-163.34 -25.16c-272.87,-44.4 -582.28,-94.53 -790.55,26.31 -1.88,1.17 -3.62,2.28 -5.51,3.36 -0.6,-0.74 -1.96,-2.19 -1.96,-2.19l1.9 2.19 0 0.09c-147.83,-179.29 -371.72,-270.05 -665.21,-270.05l-6.95 0c-293.59,0 -517.36,90.76 -665.27,270.05l-0.07 -0.09c0.22,-0.13 2.03,-2.26 2.03,-2.26 -0.07,0.07 -1.42,1.52 -2.03,2.26 -1.81,-1.08 -3.55,-2.19 -5.44,-3.36 -208.37,-120.84 -517.65,-70.71 -790.55,-26.31l-163.41 25.16c-119.69,20.67 -550.71,78.8 -1067.87,-37.2l-50.09 -11.18c0,0 -19.39,-5.54 -35.7,9.08 -12.85,11.79 -11.86,29.54 -12.21,32.11 0.64,33.66 3.95,67.28 3.95,67.28 20.62,195.23 103.93,346.01 247.41,448.31 32.5,23 68.17,43.38 106.76,61.06 36.61,167.37 113.08,293.32 228.14,374.89 67.05,47.36 143.96,77.05 225.5,94.05 26.44,108.18 78.53,190.37 155.44,244.89 104.98,74.29 243.07,85.65 372.67,74.71 -0.23,3.09 -0.49,5.9 -0.52,7.67 -4.56,106.45 40.04,164.51 78.21,194.84 97.67,77.18 253.48,55.04 367,23 108.7,-31.56 209.4,-43.96 317.45,-39.36 109.51,6.55 181.81,49.41 265.51,99.03 104.32,61.84 222.6,131.9 423.66,133.69l5.83 0c200.94,-1.79 319.26,-71.85 423.66,-133.69 83.58,-49.62 155.85,-92.48 265.44,-99.03 108.06,-4.6 208.82,7.8 317.51,39.36 113.56,32.04 269.34,54.18 366.92,-23 38.24,-30.33 82.81,-88.39 78.3,-194.84 -0.15,-1.77 -0.22,-4.58 -0.51,-7.67 129.65,10.94 267.58,-0.42 372.54,-74.71 76.95,-54.52 129.18,-136.71 155.49,-244.89 81.61,-17 158.55,-46.69 225.63,-94.05 115.08,-81.57 191.38,-207.52 228.01,-374.89 38.59,-17.68 74.31,-38.06 106.81,-61.06 143.53,-102.3 226.79,-253.08 247.4,-448.31 0,0 3.36,-33.62 4.08,-67.28 -0.42,-2.57 0.53,-20.32 -12.36,-32.11z"/>
   <path class="fil1" d="M9467.74 2553.88c268.69,0 449.15,168.37 449.15,418.75 0,250.45 -180.46,418.63 -449.15,418.63 -268.66,0 -449.23,-168.18 -449.23,-418.63 0,-250.38 180.57,-418.75 449.23,-418.75zm595.06 -59.59c-153.16,-120.06 -364.47,-186.21 -595.06,-186.21 -230.56,0 -441.85,66.15 -595.06,186.21 -156.07,122.29 -241.98,292.07 -241.98,478.34 0,186.14 85.91,356.14 241.98,478.43 153.29,120.01 364.63,186.14 595.06,186.14 230.49,0 441.77,-66.13 595.06,-186.14 156.04,-122.29 242,-292.29 242,-478.43 0,-186.27 -85.96,-356.05 -242,-478.34z"/>
   <path class="fil1" d="M14376.44 2465.45c-8.3,-65.12 -63.82,-118.68 -137.92,-132.14 0,0 -40.52,-5.81 -71.05,0 -34.08,7.15 -61.86,19.44 -85.51,39.54 -12.07,10.05 -22.58,21.97 -31.07,35.11 -3.94,6.71 -429.73,708.3 -550.95,902.91 -99.19,-161.61 -545.91,-894.16 -550.84,-902.3 -8.98,-13.75 -19.39,-25.67 -31.49,-35.85 -23.8,-20.12 -53.44,-33.71 -85.65,-39.41 0.07,0 -34.3,-7.19 -70.88,0 -73.11,13.4 -128.85,66.24 -138.03,131.78 -2.16,11.02 -146.67,1010.93 -163.15,1124.94l-3.28 22.89 39.6 4.08c126.31,13.06 241.61,-58.73 267.85,-166.94 0.24,-0.96 3.4,-16.77 3.4,-16.77 0.18,-0.91 54.58,-378.13 76,-526.73 158.09,250.27 326.85,512.43 328.68,515.26 84.19,123.19 146.72,197.68 308.63,195.18 124.18,-5.91 196.62,-112.64 227.54,-158.14 0,0 272.87,-430.05 365.47,-576.45 14,96.62 78.88,543.79 78.88,543.79 0,0 2.05,10.55 3.23,16.65 30.6,118.74 197.24,181.84 340.71,175.2l46.44 -1.96c0,0 -166.3,-1149.04 -166.61,-1150.64z"/>
   <path class="fil1" d="M15829.05 3058.28l-455.01 0c32.75,-53.11 197.62,-320.47 227.54,-368.91 29.89,48.44 194.91,316.07 227.47,368.91zm508.04 135.43l-471.29 -764.47c-43.94,-66.52 -125.16,-107.49 -212.62,-107.49 -87.28,0 -168.47,40.76 -211.92,106.39 -0.39,0.59 -715.44,1160.31 -715.44,1160.31l40.09 17.53c34.79,15.3 72.04,23.08 110.92,23.08 82.35,0 158.63,-35.65 204.01,-95.42 7.45,-10.01 111.92,-180.59 139.15,-225.32l763.03 0c11.72,19.06 115.3,186.9 115.3,186.9 32.68,51.68 94.17,92.72 173.17,115.55 104.02,26.14 186.82,24.54 286.57,-5.37l27.66 -8.29 -248.63 -403.4z"/>
   <path class="fil1" d="M18175.73 2373.85c-38.18,-18.26 -117.47,-48.08 -219.85,-44 -147.99,5.74 -220.56,56.24 -267.34,99.68 -5.9,5.52 -326.19,345.64 -448.38,475.36 -471.74,-502.57 -481.33,-510.59 -484.59,-513.29 -45.53,-39.88 -107.14,-62.14 -172.82,-62.14 -54.94,0 -106.82,15.51 -150.11,44.69l-37 25.18c0,0 665.69,706.33 677.6,718.86 0,263.69 0.17,308.14 0.17,308.14 1.1,92.13 114.87,192.18 306.56,202.44 1.06,0.07 52.37,0.22 52.37,0.22l0 -428.59c69.21,-73.04 747.68,-787.96 751.7,-793.35l18.17 -19.83 -26.48 -13.37z"/>
   <path class="fil1" d="M10998.47 2902.44l0 -317.71 520.64 0c106.92,2.16 215.26,49.11 215.26,149.18 0,100.28 -77,154.92 -235.32,167.21 0,0 -464.6,1.25 -500.58,1.32zm733.23 218.7c102.56,-24.15 185.86,-66.54 247.01,-126.46 68.38,-66.29 109.22,-163.28 109.22,-259.25 0,-134.11 -60.11,-234.89 -183.83,-308.08 -99.07,-58.87 -247.06,-92.57 -405.9,-92.57l-603.2 0c-130.53,0.56 -237.23,89.53 -243.13,202.8l0 1091.48 29.47 -0.07c153.15,-2.7 313.43,-80.93 317.13,-207.76l0 -268.35c37.9,0.08 284.51,0.22 284.51,0.22 11.24,11.21 368.65,375.19 368.65,375.19 16.62,16.94 108.7,101.8 286.03,100.7 142.92,-0.35 200.6,-56.61 203.01,-59l15.4 -15.54c0,0 -374.51,-382.36 -424.37,-433.31z"/>
   <circle class="fil2" cx="3478.29" cy="3993.96" r="3373.44"/>
   <path class="fil0" d="M3478.29 545.52c952.25,0 1814.38,385.99 2438.42,1010.02 624.03,624.04 1010.02,1486.17 1010.02,2438.42 0,952.26 -385.98,1814.38 -1010.02,2438.42 -624.04,624.03 -1486.17,1010.02 -2438.42,1010.02 -952.26,0 -1814.38,-385.98 -2438.42,-1010.02 -624.04,-624.04 -1010.02,-1486.16 -1010.02,-2438.42 0,-952.25 385.99,-1814.38 1010.02,-2438.42 624.04,-624.04 1486.16,-1010.02 2438.42,-1010.02zm2332.36 1116.08c-596.9,-596.89 -1421.52,-966.08 -2332.36,-966.08 -910.85,0 -1735.47,369.19 -2332.36,966.08 -596.89,596.9 -966.08,1421.52 -966.08,2332.36 0,910.85 369.19,1735.47 966.08,2332.36 596.89,596.89 1421.51,966.08 2332.36,966.08 910.84,0 1735.46,-369.19 2332.36,-966.08 596.89,-596.89 966.08,-1421.51 966.08,-2332.36 0,-910.84 -369.19,-1735.46 -966.08,-2332.36z"/>
   <path class="fil3" d="M4529.12 3037.9c562.13,94.28 990.5,583.07 990.5,1171.99 0,656.39 -532.11,1188.5 -1188.5,1188.5 -108,0 -212.6,-14.45 -312.05,-41.44 16.51,-1.63 28.12,-19.75 42.1,-29.33 382.55,-262.57 651.11,-665.9 656.19,-1093.02 7.9,-662.36 -522.95,-1081.88 -1216.28,-1194.68 -6.83,-1.12 -15.95,-8.43 -20.61,-3.26l-123.6 136.94 120.97 -139.12 -1320.96 -1.66c-600.72,-13.25 -738.71,-736.71 -715.79,-736.71l1899.27 11.42c207.85,4.08 419.82,0.35 628.1,0.13 106.78,-0.11 183.18,4.34 273.48,44.75 218.44,97.76 366.45,337.81 311.34,602.19 -6.39,30.64 -14.52,58.07 -24.16,83.3zm-2059.41 2333.29c-29.58,3.23 -60.88,4.31 -94.14,2.91l-609.66 3.51 703.8 -6.42z"/>
   <path class="fil3" d="M4019.07 5356.95c-347.16,-94.23 -631.18,-341.84 -774.81,-665.59l-273.53 334.92c-138.25,154.56 -264.58,319.07 -501.02,344.91l-703.8 6.42 -327.17 1.89 1918.13 -2205.9 123.6 -136.94c4.66,-5.17 13.78,2.14 20.61,3.26 693.33,112.8 1224.18,532.32 1216.28,1194.68 -5.08,427.12 -273.64,830.45 -656.19,1093.02 -13.98,9.58 -25.59,27.7 -42.1,29.33zm312.05 -1433.62c7.94,0.06 15.79,0.43 23.54,1.1 147.44,10.83 263.7,133.87 263.7,284.08 0,10.47 -0.58,20.81 -1.68,30.99 -5.26,59.95 -29.97,111.24 -64.38,152.58 -53.64,64.43 -133.16,107.59 -221.18,104.36 -105.67,-3.89 -199.03,-55.2 -248.52,-143.8 -22.45,-40.19 -38.74,-88.48 -38.04,-142.75 1.27,-97.13 40.6,-169.89 102.88,-219.96 49.27,-39.6 112.85,-67.1 183.68,-66.6z"/>
   <path class="fil4" d="M4529.64 3037.6c283.16,47.61 532.35,195.28 709.95,405.42 174.94,207 280.41,474.61 280.41,766.87 0,328.3 -133.07,625.52 -348.22,840.66 -215.14,215.15 -512.36,348.22 -840.66,348.22 -238.77,0 -461.08,-70.4 -647.34,-191.56 -192.02,-124.92 -345.72,-303.8 -439.61,-515.14l-273.16 334.46c-11.3,12.63 -22.54,25.36 -33.77,38.07 -143.11,161.97 -284.09,321.54 -561.69,309.88l-937.64 5.4 2039.1 -2345.02 -1320.13 -1.66c-403.75,-8.91 -598.58,-338.43 -676.03,-553.81 -16.35,-45.48 -27.47,-85.87 -34.22,-117.07 -6.75,-31.23 -9.13,-53.29 -7.99,-62.07 0.38,-2.97 1.21,-4.52 2.45,-4.52l1899.28 11.42c143.59,2.82 289.15,1.91 434.09,1.01 64.87,-0.4 129.61,-0.81 194,-0.88 53.41,-0.05 99.22,1.03 142.97,7.18 43.77,6.16 85.48,17.38 130.66,37.6 112.92,50.54 207.03,139.07 264.03,249.32 53.35,103.18 74.19,225.4 47.53,353.3 -3.19,15.33 -6.83,29.85 -10.87,43.71 -3.99,13.7 -8.38,26.73 -13.14,39.21zm709.37 405.91c-177.58,-210.12 -426.79,-357.75 -709.95,-405.24l-0.46 -0.08 0.17 -0.43c4.82,-12.61 9.26,-25.76 13.29,-39.58 4.03,-13.83 7.66,-28.34 10.85,-43.65 26.62,-127.72 5.81,-249.77 -47.46,-352.8 -56.93,-110.1 -150.91,-198.51 -263.66,-248.97 -45.12,-20.19 -86.76,-31.4 -130.46,-37.55 -43.72,-6.14 -89.5,-7.23 -142.87,-7.17 -64.39,0.07 -129.13,0.47 -193.99,0.88 -144.96,0.9 -290.52,1.8 -434.11,-1.01l-1899.27 -11.42c-0.8,0 -1.37,1.32 -1.7,3.85 -1.13,8.71 1.25,30.67 7.98,61.82 6.75,31.18 17.86,71.54 34.2,116.98 77.37,215.18 272.01,544.41 675.32,553.3l1321.78 1.66 -2039.09 2345.02 936 -5.4c277.24,11.65 418.1,-147.78 561.09,-309.63 11.21,-12.69 22.44,-25.39 33.77,-38.05l273.92 -335.4 0.25 0.57c93.81,211.44 247.51,390.41 439.58,515.36 186.14,121.09 408.31,191.44 646.93,191.44 328.09,0 625.12,-132.99 840.13,-347.99 215,-215.01 347.99,-512.04 347.99,-840.13 0,-292.08 -105.4,-559.51 -280.23,-766.38zm-907.89 479.45c33.19,0.23 64.79,5.94 93.96,16.02 30.78,10.64 58.86,26.14 83.23,45.21 33.25,26.01 60.95,59.23 80.21,98.85 17.96,36.94 28.58,79.44 29.53,126.84 0.69,34.71 -5.05,66.84 -15.57,96.16 -11.57,32.25 -28.93,61.11 -49.89,86.28 -27.76,33.34 -62.43,60.99 -101.62,79.48 -36.66,17.3 -77.27,26.58 -119.87,25.02 -53.5,-1.97 -103.86,-16.09 -146.98,-41.04 -42.13,-24.38 -77.36,-59.11 -101.85,-102.96 -11.95,-21.38 -22.15,-45.06 -28.98,-70.7 -6.03,-22.62 -9.43,-46.77 -9.1,-72.24 0.61,-47.07 10.15,-88.44 26.91,-124.27 17.87,-38.2 43.93,-70.11 76.11,-95.98 25.8,-20.73 55.52,-38.15 88.15,-49.98 29.75,-10.79 61.93,-16.93 95.76,-16.69zm93.71 16.74c-29.09,-10.06 -60.61,-15.76 -93.72,-15.99 -33.73,-0.24 -65.82,5.89 -95.5,16.65 -32.54,11.8 -62.19,29.18 -87.93,49.86 -32.09,25.8 -58.08,57.62 -75.89,95.71 -16.72,35.74 -26.24,77 -26.85,123.96 -0.33,25.39 3.07,49.48 9.08,72.03 6.81,25.59 16.99,49.2 28.91,70.53 24.42,43.73 59.55,78.36 101.57,102.68 43.01,24.88 93.25,38.97 146.63,40.93 42.47,1.56 82.96,-7.7 119.51,-24.94 39.1,-18.44 73.68,-46.03 101.37,-79.28 20.9,-25.11 38.22,-53.89 49.76,-86.06 10.49,-29.24 16.21,-61.27 15.52,-95.89 -0.94,-47.28 -11.54,-89.68 -29.45,-126.53 -19.21,-39.5 -46.84,-72.63 -80,-98.58 -24.31,-19.01 -52.31,-34.47 -83.01,-45.08z"/>
   <path class="fil4" d="M1737.35 5830.66c8.88,0 15.2,-2.41 18.92,-7.21 3.72,-4.8 5.6,-11.33 5.6,-19.56l49.03 0 0 322.53 -49.03 0 0 -264.04 -44.77 0 0 -31.72 20.25 0zm378.53 264.87c11.37,0 20.34,-2.34 26.91,-7.01 6.58,-4.66 9.86,-11.67 9.86,-21l0 -65.5c-7.1,4.94 -15.01,8.79 -23.71,11.53 -8.71,2.75 -18.21,4.12 -28.52,4.12 -18.12,0 -33.49,-4.8 -46.1,-14.41 -12.61,-9.62 -18.92,-24.31 -18.92,-44.08l0 -97.21c0,-9.89 2.23,-18.75 6.66,-26.57 4.44,-7.82 10.4,-14.56 17.86,-20.19 7.45,-5.62 16.26,-9.89 26.38,-12.77 10.12,-2.88 21.05,-4.32 32.78,-4.32 11.37,0 22.03,1.44 31.97,4.32 9.95,2.88 18.66,7.15 26.12,12.77 7.46,5.63 13.33,12.37 17.59,20.19 4.26,7.82 6.39,16.69 6.39,26.57l0 206.37c0,9.88 -2.13,18.75 -6.39,26.57 -4.26,7.82 -10.13,14.56 -17.59,20.18 -7.46,5.63 -16.35,9.89 -26.65,12.77 -10.3,2.88 -21.67,4.33 -34.11,4.33 -24.87,0 -44.59,-5.7 -59.16,-17.1 -14.56,-11.39 -21.85,-26.98 -21.85,-46.75l0 -16.48 45.3 9.06 0 6.6c0,9.32 3.12,16.34 9.33,21 6.21,4.67 14.83,7.01 25.85,7.01zm-35.18 -143.76c0,9.59 2.41,17.23 7.2,22.86 4.79,5.62 13.23,8.44 25.31,8.44 8.18,0 15.37,-1.3 21.59,-3.91 6.22,-2.61 12.17,-6.52 17.85,-11.74l0 -104.63c0,-9.34 -3.29,-16.34 -9.86,-21.01 -6.57,-4.66 -15.19,-7 -25.85,-7 -10.65,0 -19.36,2.34 -26.11,7 -6.75,4.67 -10.13,11.68 -10.13,21.01l0 88.98zm499.51 -147.88l0 36.66 -108.19 0 -6.93 54.37c7.11,-3.84 15.19,-7.14 24.25,-9.89 9.06,-2.74 19.28,-4.12 30.65,-4.12 8.53,0 16.52,0.9 23.98,2.68 7.46,1.79 14.13,4.88 19.99,9.27 5.86,4.39 10.48,10.3 13.86,17.71 3.37,7.42 5.06,16.76 5.06,28.01l0 129.76c0,9.88 -2.14,18.74 -6.4,26.57 -4.26,7.82 -10.13,14.56 -17.58,20.18 -7.46,5.63 -16.17,9.89 -26.12,12.77 -9.95,2.88 -20.61,4.33 -31.98,4.33 -11.72,0 -22.65,-1.44 -32.78,-4.33 -10.12,-2.88 -18.92,-7.14 -26.38,-12.77 -7.46,-5.62 -13.41,-12.36 -17.85,-20.18 -4.44,-7.83 -6.66,-16.68 -6.66,-26.57l0 -16.48 45.3 9.06 0 6.6c0,9.05 3.38,15.99 10.13,20.8 6.74,4.8 15.27,7.21 25.58,7.21 10.66,0 19.36,-2.41 26.11,-7.21 6.75,-4.81 10.13,-11.74 10.13,-20.8l0 -129.35c0,-9.06 -2.58,-15.45 -7.73,-19.15 -5.15,-3.71 -12.35,-5.56 -21.58,-5.56 -11.02,0 -20.35,2.06 -27.98,6.18 -7.64,4.11 -13.95,9.06 -18.92,14.82l-39.44 -10.29 11.72 -120.28 149.76 0zm300.19 -5.77c13.85,0 26.02,1.78 36.5,5.35 10.49,3.57 19.28,8.45 26.39,14.63 7.1,6.18 12.43,13.52 15.99,22.03 3.55,8.52 5.32,17.72 5.32,27.6l0 44.9c0,13.18 -2.48,23.41 -7.46,30.69 -4.97,7.28 -12.61,12.56 -22.91,15.86 11.37,3.3 20.07,8.79 26.11,16.48 6.04,7.69 9.06,18.67 9.06,32.95l0 60.14c0,9.89 -2.22,18.74 -6.66,26.57 -4.44,7.83 -10.57,14.49 -18.39,19.98 -7.81,5.49 -16.96,9.68 -27.45,12.56 -10.48,2.89 -21.76,4.33 -33.84,4.33 -12.08,0 -23.27,-1.44 -33.58,-4.33 -10.3,-2.88 -19.18,-7.14 -26.64,-12.77 -7.47,-5.63 -13.24,-12.35 -17.33,-20.18 -4.08,-7.83 -6.12,-16.68 -6.12,-26.57l0 -16.48 45.3 9.06 0 6.6c0,9.33 3.46,16.34 10.39,21 6.93,4.67 16.08,7.01 27.45,7.01 11.72,0 21.05,-2.34 27.98,-7.01 6.93,-4.66 10.39,-11.67 10.39,-21l0 -59.32c0,-11.53 -2.84,-19.7 -8.53,-24.51 -5.68,-4.81 -15.63,-7.21 -29.84,-7.21l-29.31 0 0 -32.54 26.11 0c13.5,0 23.1,-2.2 28.78,-6.59 5.69,-4.4 8.53,-12.22 8.53,-23.48l0 -46.55c0,-10.16 -2.84,-18.12 -8.53,-23.89 -5.68,-5.77 -15.1,-8.65 -28.25,-8.65 -12.08,0 -20.96,2.54 -26.64,7.62 -5.69,5.08 -8.53,12.43 -8.53,22.04l0 8.24 -45.3 0 0 -10.71c0,-19.78 7.28,-35.36 21.85,-46.76 14.56,-11.39 34.28,-17.09 59.16,-17.09zm634.57 156.94l0 30.07 -133.77 0 0 -30.07 133.77 0zm493.34 -156.94c24.87,0 44.86,5.63 59.96,16.89 15.1,11.26 22.65,29.38 22.65,54.37 0,11.53 -1.69,21.35 -5.06,29.45 -3.38,8.1 -8.09,16.41 -14.13,24.92 -4.62,6.05 -10.12,12.71 -16.52,19.98 -6.39,7.28 -13.06,14.76 -19.99,22.45 -6.92,7.69 -13.67,15.24 -20.25,22.66 -6.57,7.41 -12.52,14.42 -17.85,21.01 -3.91,4.94 -7.11,9.4 -9.6,13.38 -2.48,3.99 -4.44,7.9 -5.86,11.74 -1.42,3.85 -2.4,7.97 -2.93,12.36 -0.53,4.4 -0.8,9.61 -0.8,15.65l0 26.78 112.99 0 0 36.66 -162.02 0 0 -63.44c0,-10.43 1.51,-20.8 4.53,-31.1 3.02,-10.29 8.62,-21.07 16.79,-32.33 4.62,-6.04 10.3,-12.84 17.05,-20.39 6.75,-7.55 13.68,-15.17 20.79,-22.86 7.1,-7.69 14.12,-15.24 21.05,-22.66 6.93,-7.41 12.7,-14.28 17.32,-20.6 6.04,-8.23 10.22,-15.92 12.53,-23.06 2.31,-7.14 3.46,-14.42 3.46,-21.83 0,-12.36 -3.02,-21.01 -9.06,-25.96 -6.04,-4.94 -14.75,-7.41 -26.12,-7.41 -11.72,0 -20.78,2.33 -27.18,7 -6.39,4.67 -9.59,11.67 -9.59,21.01l0 9.89 -45.3 0 0 -10.71c0,-19.78 7.19,-35.36 21.58,-46.76 14.39,-11.39 34.91,-17.09 61.56,-17.09zm466.47 269.4c0,10.15 -2.23,19.22 -6.66,27.18 -4.44,7.96 -10.58,14.77 -18.39,20.39 -7.82,5.63 -16.97,9.89 -27.45,12.77 -10.48,2.89 -21.58,4.33 -33.31,4.33 -12.08,0 -23.36,-1.45 -33.84,-4.33 -10.48,-2.88 -19.55,-7.14 -27.18,-12.77 -7.64,-5.62 -13.69,-12.43 -18.13,-20.39 -4.43,-7.96 -6.66,-17.02 -6.66,-27.18l0 -204.73c0,-10.16 2.23,-19.22 6.66,-27.19 4.44,-7.96 10.49,-14.69 18.13,-20.18 7.63,-5.49 16.7,-9.75 27.18,-12.77 10.48,-3.02 21.76,-4.53 33.84,-4.53 11.73,0 22.83,1.51 33.31,4.53 10.48,3.02 19.63,7.28 27.45,12.77 7.81,5.49 13.95,12.22 18.39,20.18 4.43,7.97 6.66,17.03 6.66,27.19l0 204.73zm-123.12 -0.42c0,9.33 3.47,16.41 10.4,21.22 6.92,4.8 15.9,7.21 26.91,7.21 11.01,0 19.99,-2.41 26.91,-7.21 6.93,-4.81 10.4,-11.88 10.4,-21.22l0 -203.9c0,-9.33 -3.47,-16.41 -10.4,-21.21 -6.92,-4.81 -15.9,-7.21 -26.91,-7.21 -11.01,0 -19.99,2.4 -26.91,7.21 -6.93,4.8 -10.4,11.88 -10.4,21.21l0 203.9zm421.7 -268.98c24.87,0 44.86,5.63 59.96,16.89 15.1,11.25 22.65,29.38 22.65,54.37 0,11.53 -1.69,21.36 -5.06,29.45 -3.37,8.1 -8.09,16.41 -14.13,24.92 -4.62,6.05 -10.13,12.71 -16.52,19.98 -6.39,7.28 -13.06,14.77 -19.98,22.45 -6.93,7.69 -13.69,15.25 -20.26,22.66 -6.57,7.41 -12.52,14.42 -17.85,21.01 -3.91,4.94 -7.11,9.41 -9.59,13.38 -2.49,3.98 -4.45,7.9 -5.87,11.74 -1.42,3.85 -2.4,7.97 -2.93,12.36 -0.53,4.4 -0.8,9.62 -0.8,15.65l0 26.78 112.99 0 0 36.66 -162.02 0 0 -63.44c0,-10.43 1.51,-20.8 4.53,-31.1 3.02,-10.29 8.62,-21.07 16.79,-32.33 4.62,-6.04 10.31,-12.84 17.05,-20.39 6.75,-7.55 13.68,-15.17 20.79,-22.86 7.1,-7.69 14.13,-15.25 21.05,-22.66 6.93,-7.41 12.7,-14.28 17.32,-20.6 6.04,-8.23 10.22,-15.93 12.53,-23.06 2.3,-7.14 3.46,-14.42 3.46,-21.83 0,-12.36 -3.02,-21.02 -9.06,-25.96 -6.04,-4.93 -14.74,-7.41 -26.11,-7.41 -11.73,0 -20.79,2.34 -27.19,7 -6.39,4.67 -9.59,11.68 -9.59,21.01l0 9.89 -45.3 0 0 -10.71c0,-19.78 7.2,-35.36 21.58,-46.76 14.39,-11.39 34.91,-17.09 61.56,-17.09zm371.6 0c13.86,0 26.03,1.78 36.51,5.35 10.48,3.57 19.27,8.45 26.38,14.63 7.11,6.18 12.44,13.53 15.99,22.03 3.55,8.51 5.33,17.73 5.33,27.6l0 44.9c0,13.17 -2.49,23.42 -7.46,30.69 -4.97,7.27 -12.62,12.56 -22.92,15.86 11.37,3.3 20.08,8.79 26.12,16.48 6.03,7.68 9.06,18.68 9.06,32.95l0 60.14c0,9.88 -2.23,18.74 -6.67,26.57 -4.44,7.83 -10.57,14.49 -18.38,19.98 -7.82,5.49 -16.97,9.68 -27.45,12.56 -10.48,2.89 -21.76,4.33 -33.84,4.33 -12.08,0 -23.28,-1.45 -33.58,-4.33 -10.3,-2.87 -19.19,-7.14 -26.65,-12.77 -7.46,-5.63 -13.24,-12.36 -17.32,-20.18 -4.08,-7.82 -6.13,-16.68 -6.13,-26.57l0 -16.48 45.3 9.06 0 6.6c0,9.32 3.47,16.34 10.4,21 6.92,4.67 16.07,7.01 27.44,7.01 11.73,0 21.05,-2.34 27.98,-7.01 6.93,-4.66 10.4,-11.67 10.4,-21l0 -59.32c0,-11.53 -2.85,-19.7 -8.53,-24.51 -5.69,-4.81 -15.65,-7.21 -29.85,-7.21l-29.31 0 0 -32.54 26.11 0c13.51,0 23.11,-2.2 28.79,-6.59 5.67,-4.39 8.52,-12.22 8.52,-23.48l0 -46.55c0,-10.16 -2.84,-18.12 -8.52,-23.89 -5.69,-5.77 -15.11,-8.65 -28.25,-8.65 -12.08,0 -20.97,2.54 -26.65,7.62 -5.68,5.08 -8.53,12.44 -8.53,22.04l0 8.24 -45.3 0 0 -10.71c0,-19.78 7.28,-35.36 21.85,-46.76 14.57,-11.39 34.29,-17.09 59.16,-17.09z"/>
   <path class="fil5" style="mask:url(#id0)" d="M3297.09 3239.83l183.38 -203.17c4.66,-5.17 13.78,2.14 20.61,3.26 693.33,112.8 1224.18,532.32 1216.28,1194.68 -5.08,427.12 -273.64,830.45 -656.19,1093.02 -14.59,10 -26.6,29.3 -44.3,29.45l-2580.3 23.55 1860.52 -2140.79zm1033.4 685.32c157.32,0 284.86,127.54 284.86,284.87 0,157.32 -127.54,284.85 -284.86,284.85 -157.33,0 -284.86,-127.53 -284.86,-284.85 0,-157.33 127.53,-284.87 284.86,-284.87z"/>
   <path class="fil1" d="M2971.29 4040.22l68.31 0c8.48,0 14.59,2.61 16.74,8.49l111.84 306.54c0,3.02 -1.45,5.85 -4.36,8.49 -2.9,2.63 -6.14,3.95 -9.7,3.95l-42.2 0c-6.24,0 -10.78,-2.52 -12.72,-7.91l-18.08 -50.34 -151.35 0 -18.08 50.34c-1.94,5.39 -6.48,7.91 -12.73,7.91l-42.19 0c-3.57,0 -6.81,-1.32 -9.71,-3.95 -2.9,-2.64 -4.36,-5.47 -4.36,-8.49l111.84 -306.54c2.15,-5.88 8.26,-8.49 16.75,-8.49zm34.15 59.39l-57.59 158.36 114.52 0 -56.93 -158.36zm730.47 262.99l-164.08 -215.48 0 208.7c0,3.01 -1.45,5.75 -4.35,8.2 -2.9,2.45 -5.92,3.67 -9.04,3.67l-38.85 0c-3.12,0 -6.14,-1.22 -9.04,-3.67 -2.9,-2.45 -4.35,-5.19 -4.35,-8.2l0 -303.72c0,-3.02 1.45,-5.75 4.35,-8.2 2.9,-2.45 5.92,-3.68 9.04,-3.68l44.2 0c4.47,0 7.59,1.86 10.05,5.09l162.73 214.36 0 -207.57c0,-3.02 1.46,-5.75 4.36,-8.2 2.9,-2.45 5.91,-3.68 9.04,-3.68l38.84 0c3.13,0 6.14,1.23 9.04,3.68 2.9,2.45 4.36,5.18 4.36,8.2l0 303.72c0,3.01 -1.46,5.75 -4.36,8.2 -2.9,2.45 -5.91,3.67 -9.04,3.67l-42.86 0c-4.46,0 -7.58,-1.85 -10.04,-5.09zm-25.45 -351.22c-11.62,-0.09 -28.8,-4.81 -51.57,-13.29 -22.77,-8.49 -38.62,-12.73 -47.55,-12.73 -8.48,0 -14.84,1.41 -19.08,4.24 -4.25,2.83 -5.9,8.09 -7.04,15.56 -0.65,4.3 -4.91,6.22 -10.71,6.22l-28.13 0c-8.03,0 -12.7,-3.62 -12.05,-10.75 3.81,-41.91 25.67,-62.78 63.62,-62.78 16.96,0 35.94,4.34 56.92,13.01 20.99,8.67 35.05,13.01 42.19,13.01 8.49,0 14.85,-1.42 19.09,-4.24 4.24,-2.83 5.89,-8.09 7.03,-15.56 0.66,-4.3 4.91,-6.22 10.72,-6.22l28.12 0c8.04,0 12.71,3.61 12.06,10.75 -3.82,41.91 -25.68,63.07 -63.62,62.78zm1365.83 65.04c3.16,3.36 4.68,5.84 4.68,7.35 0,4.15 -1.38,6.9 -4.01,8.49l-28.13 16.96c-4.29,2.59 -7.81,3.4 -10.05,3.4 -4.46,0 -7.6,-1.96 -10.71,-4.53 -17.92,-14.81 -42.19,-21.49 -71.66,-21.49 -15.63,0 -28.02,3.87 -37.17,11.59 -9.15,7.73 -13.73,17.25 -13.73,28.57 0,11.31 4.8,21.02 14.4,29.12 9.6,8.11 21.54,14.14 35.83,18.1 14.29,3.96 29.91,8.77 46.88,14.43 16.96,5.65 32.59,11.68 46.88,18.09 14.28,6.41 26.23,16.31 35.83,29.7 9.6,13.38 14.4,29.31 14.4,47.79 0,9.43 -1.79,18.66 -5.36,27.71 -3.57,9.05 -9.6,18.57 -18.08,28.56 -8.49,10 -21.99,18.1 -40.52,24.32 -18.53,6.23 -40.96,9.34 -67.31,9.34 -57.59,0 -100.21,-16.61 -127.91,-49.78 -2.21,-2.65 -3.35,-5.27 -3.35,-7.91 0,-4.53 2.24,-8.3 6.7,-11.31l23.44 -15.84c3.5,-2.37 7.14,-3.39 10.72,-3.39 3.12,0 6.18,0.95 8.7,3.39 22.49,21.7 50.68,32.8 85.05,32.8 41.53,0 62.29,-13.95 62.29,-41.85 0,-10.93 -6.7,-20.17 -20.1,-27.71 -13.39,-7.54 -29.46,-14.14 -48.21,-19.8 -18.75,-5.66 -37.62,-12.16 -56.59,-19.51 -18.98,-7.35 -35.16,-18.67 -48.56,-33.94 -13.39,-15.27 -20.09,-34.03 -20.09,-56.27 0,-7.54 0.67,-14.61 2.01,-21.21 1.34,-6.6 4.47,-14.24 9.38,-22.91 4.91,-8.67 11.49,-16.02 19.75,-22.06 8.26,-6.03 20.1,-11.21 35.5,-15.55 15.4,-4.34 33.37,-6.5 53.91,-6.5 50.45,0 88.88,13.91 115.19,41.85z"/>
  </g>
 </g>
</svg>
